<svg width="304" height="284" viewBox="0 0 304 284" fill="none" xmlns="http://www.w3.org/2000/svg">
<g clip-path="url(#clip0_2_3706)">
<rect width="304" height="284" rx="8" fill="#EF2C5A"/>
<g opacity="0.5">
<path d="M146.941 364V196.232C146.941 186.364 138.941 178.364 129.073 178.364H30.3086C21.0575 178.364 13.558 170.865 13.558 161.614V-11.9152C13.558 -21.7831 5.55853 -29.7825 -4.30931 -29.7825L-63 -29.7824" stroke="url(#paint0_linear_2_3706)" stroke-width="0.558353"/>
<path d="M-13.8672 61.5082L62.9063 61.5081C72.1574 61.5081 79.6569 69.0076 79.6569 78.2587V229.174C79.6569 238.426 87.1564 245.925 96.4075 245.925H347.945" stroke="url(#paint1_linear_2_3706)" stroke-width="0.558353"/>
<path d="M347.948 62.0664H297.696C288.445 62.0664 280.945 54.5669 280.945 45.3159V-173" stroke="url(#paint2_linear_2_3706)" stroke-width="0.558353"/>
<path d="M18 -67H85.0023V33.5035C85.0023 42.7546 92.5018 50.2541 101.753 50.2541H219.007V166.95H352.732" stroke="url(#paint3_linear_2_3706)" stroke-width="0.558353"/>
</g>
<path d="M27.76 48V41.34L33.78 48H36.54L29.98 40.68L36.38 33.64H33.84L27.76 40.28V33.64H25.56V48H27.76ZM39.9697 48V33.64H37.9297V48H39.9697ZM48.7934 48H50.4734V41.2C50.4734 38.68 48.9534 37.2 46.3334 37.2C43.8534 37.2 42.1534 38.78 42.0534 41.16H43.8934C43.9534 39.68 44.8534 38.8 46.3334 38.8C47.7334 38.8 48.5534 39.66 48.5534 41.18V41.96C47.6934 41.86 47.1934 41.84 46.5734 41.84C43.4134 41.84 41.7534 42.92 41.7534 45C41.7534 46.94 43.1934 48.2 45.3934 48.2C46.9534 48.2 48.1334 47.54 48.7934 46.36V48ZM43.6734 44.94C43.6734 43.7 44.6734 43.1 46.6934 43.1C47.2134 43.1 47.7734 43.12 48.5534 43.22V44.08C48.5534 45.7 47.4934 46.76 45.7934 46.76C44.4934 46.76 43.6734 46.04 43.6734 44.94ZM61.1742 44.84C61.1742 43.32 60.1742 42.4 58.0742 42.02L56.2742 41.68C54.9942 41.44 54.4542 41.04 54.4542 40.18C54.4542 39.26 55.3142 38.72 56.5942 38.72C58.0142 38.72 58.9542 39.46 59.0742 40.74H61.0142C60.8342 38.56 59.1142 37.2 56.5742 37.2C54.1142 37.2 52.4942 38.5 52.4942 40.36C52.4942 41.96 53.5942 42.96 55.5542 43.34L57.2742 43.66C58.5942 43.92 59.1342 44.3 59.1342 45.18C59.1342 46.18 58.1942 46.68 56.7742 46.68C55.1542 46.68 54.0942 45.86 54.0142 44.54H52.0742C52.2742 46.82 53.9342 48.2 56.7342 48.2C59.5542 48.2 61.1742 46.92 61.1742 44.84ZM64.9997 42.02C64.9997 40.14 66.1597 38.98 67.5397 38.98C69.0397 38.98 69.8397 40 69.8397 41.82V48H71.8597V41.14C71.8597 38.6 70.4197 37.2 68.2397 37.2C66.7797 37.2 65.6997 37.96 64.9997 39.1V33.64H62.9797V48H64.9997V42.02ZM80.5622 48H82.2422V41.2C82.2422 38.68 80.7222 37.2 78.1022 37.2C75.6222 37.2 73.9222 38.78 73.8222 41.16H75.6622C75.7222 39.68 76.6222 38.8 78.1022 38.8C79.5022 38.8 80.3222 39.66 80.3222 41.18V41.96C79.4622 41.86 78.9622 41.84 78.3422 41.84C75.1822 41.84 73.5222 42.92 73.5222 45C73.5222 46.94 74.9622 48.2 77.1622 48.2C78.7222 48.2 79.9022 47.54 80.5622 46.36V48ZM75.4422 44.94C75.4422 43.7 76.4422 43.1 78.4622 43.1C78.9822 43.1 79.5422 43.12 80.3222 43.22V44.08C80.3222 45.7 79.2622 46.76 77.5622 46.76C76.2622 46.76 75.4422 46.04 75.4422 44.94ZM94.6469 48H96.9269L100.667 33.64H98.5069L95.7469 44.72L92.7669 33.64H90.4869L87.4669 44.7L84.7069 33.64H82.5469L86.2869 48H88.5469L91.6069 36.74L94.6469 48ZM104.533 34.94C104.533 34.16 103.933 33.6 103.073 33.6C102.213 33.6 101.593 34.16 101.593 34.94C101.593 35.7 102.213 36.28 103.073 36.28C103.933 36.28 104.533 35.7 104.533 34.94ZM104.093 48V37.4H102.073V48H104.093ZM108.517 42.58C108.517 40.24 110.177 39.24 112.457 39.36V37.26C110.717 37.26 109.117 38.18 108.377 39.64V37.4H106.497V48H108.517V42.58ZM117.976 48.2C120.476 48.2 122.296 46.78 122.816 44.42H120.816C120.476 45.8 119.436 46.62 117.936 46.62C116.156 46.62 115.076 45.36 114.916 43.2H122.816C123.176 39.76 121.076 37.2 117.916 37.2C114.996 37.2 112.856 39.5 112.856 42.64C112.856 45.98 114.916 48.2 117.976 48.2ZM117.876 38.72C119.516 38.72 120.576 39.9 120.676 41.86H114.936C115.156 39.88 116.256 38.72 117.876 38.72ZM133.664 43.4V41.58H127.444V43.4H133.664ZM147.35 44.84C147.35 43.32 146.35 42.4 144.25 42.02L142.45 41.68C141.17 41.44 140.63 41.04 140.63 40.18C140.63 39.26 141.49 38.72 142.77 38.72C144.19 38.72 145.13 39.46 145.25 40.74H147.19C147.01 38.56 145.29 37.2 142.75 37.2C140.29 37.2 138.67 38.5 138.67 40.36C138.67 41.96 139.77 42.96 141.73 43.34L143.45 43.66C144.77 43.92 145.31 44.3 145.31 45.18C145.31 46.18 144.37 46.68 142.95 46.68C141.33 46.68 140.27 45.86 140.19 44.54H138.25C138.45 46.82 140.11 48.2 142.91 48.2C145.73 48.2 147.35 46.92 147.35 44.84ZM153.515 48.2C156.015 48.2 157.835 46.78 158.355 44.42H156.355C156.015 45.8 154.975 46.62 153.475 46.62C151.695 46.62 150.615 45.36 150.455 43.2H158.355C158.715 39.76 156.615 37.2 153.455 37.2C150.535 37.2 148.395 39.5 148.395 42.64C148.395 45.98 150.455 48.2 153.515 48.2ZM153.415 38.72C155.055 38.72 156.115 39.9 156.215 41.86H150.475C150.695 39.88 151.795 38.72 153.415 38.72ZM162.123 42.02C162.123 40.14 163.283 38.98 164.663 38.98C166.163 38.98 166.963 40 166.963 41.82V48H168.983V41.14C168.983 38.6 167.543 37.2 165.363 37.2C163.903 37.2 162.703 37.98 161.983 39.16V37.4H160.103V48H162.123V42.02ZM170.506 42.7C170.506 45.88 172.346 48.2 175.206 48.2C176.706 48.2 177.986 47.44 178.746 46.1V48H180.626V33.64H178.606V39.22C177.866 37.92 176.626 37.2 175.206 37.2C172.346 37.2 170.506 39.48 170.506 42.7ZM172.606 42.7C172.606 40.3 173.846 38.98 175.606 38.98C177.286 38.98 178.606 40.28 178.606 42.66C178.606 45 177.326 46.4 175.606 46.4C173.846 46.4 172.606 45.06 172.606 42.7ZM27.42 80V73.92C27.42 72.14 28.52 70.98 29.92 70.98C31.4 70.98 32.18 72.02 32.18 73.78V80H34.2V73.92C34.2 72.14 35.32 70.98 36.7 70.98C38.18 70.98 38.96 72.02 38.96 73.78V80H40.98V73.14C40.98 70.62 39.58 69.2 37.4 69.2C35.78 69.2 34.56 70.04 33.82 71.4C33.34 70 32.16 69.2 30.6 69.2C29.14 69.2 28 69.94 27.28 71.16V69.4H25.4V80H27.42ZM47.7213 80.2C50.7213 80.2 52.9213 77.84 52.9213 74.7C52.9213 71.56 50.7213 69.2 47.7213 69.2C44.7213 69.2 42.5213 71.56 42.5213 74.7C42.5213 77.84 44.7213 80.2 47.7213 80.2ZM47.7213 78.42C45.9813 78.42 44.6213 77.02 44.6213 74.7C44.6213 72.38 45.9813 71 47.7213 71C49.4613 71 50.8413 72.38 50.8413 74.7C50.8413 77.02 49.4613 78.42 47.7213 78.42ZM56.6005 74.02C56.6005 72.14 57.7605 70.98 59.1405 70.98C60.6405 70.98 61.4405 72 61.4405 73.82V80H63.4605V73.14C63.4605 70.6 62.0205 69.2 59.8405 69.2C58.3805 69.2 57.1805 69.98 56.4605 71.16V69.4H54.5805V80H56.6005V74.02ZM70.103 80.2C72.603 80.2 74.423 78.78 74.943 76.42H72.943C72.603 77.8 71.563 78.62 70.063 78.62C68.283 78.62 67.203 77.36 67.043 75.2H74.943C75.303 71.76 73.203 69.2 70.043 69.2C67.123 69.2 64.983 71.5 64.983 74.64C64.983 77.98 67.043 80.2 70.103 80.2ZM70.003 70.72C71.643 70.72 72.703 71.9 72.803 73.86H67.063C67.283 71.88 68.383 70.72 70.003 70.72ZM85.1586 69.4H83.1186L80.2586 77.48L77.1786 69.4H74.9986L79.1786 79.86L77.6586 83.86H79.8586L85.1586 69.4ZM95.9527 78.04C95.5327 78.24 95.1127 78.32 94.6327 78.32C93.5527 78.32 92.8527 77.8 92.8527 76.34V71.12H96.0527V69.4H92.8527V66.26H90.8327V69.4H88.4927V71.12H90.8327V76.8C90.8327 79.14 92.1927 80.2 94.1527 80.2C94.7927 80.2 95.3327 80.1 95.9527 79.82V78.04ZM101.727 80.2C104.727 80.2 106.927 77.84 106.927 74.7C106.927 71.56 104.727 69.2 101.727 69.2C98.7275 69.2 96.5275 71.56 96.5275 74.7C96.5275 77.84 98.7275 80.2 101.727 80.2ZM101.727 78.42C99.9875 78.42 98.6275 77.02 98.6275 74.7C98.6275 72.38 99.9875 71 101.727 71C103.467 71 104.847 72.38 104.847 74.7C104.847 77.02 103.467 78.42 101.727 78.42ZM122.486 74.7C122.486 71.48 120.626 69.2 117.786 69.2C116.346 69.2 115.126 69.92 114.386 71.22V65.64H112.366V80H114.246V78.1C115.006 79.44 116.286 80.2 117.786 80.2C120.646 80.2 122.486 77.88 122.486 74.7ZM120.386 74.7C120.386 77.06 119.126 78.4 117.386 78.4C115.666 78.4 114.386 77 114.386 74.66C114.386 72.28 115.706 70.98 117.386 70.98C119.126 70.98 120.386 72.3 120.386 74.7ZM130.754 75.64C130.754 77.3 129.654 78.42 128.294 78.42C126.974 78.42 126.054 77.66 126.054 75.82V69.4H124.034V76.22C124.034 78.94 125.514 80.2 127.654 80.2C129.094 80.2 130.334 79.42 130.894 78.32V80H132.774V69.4H130.754V75.64ZM143.58 76.84C143.58 75.32 142.58 74.4 140.48 74.02L138.68 73.68C137.4 73.44 136.86 73.04 136.86 72.18C136.86 71.26 137.72 70.72 139 70.72C140.42 70.72 141.36 71.46 141.48 72.74H143.42C143.24 70.56 141.52 69.2 138.98 69.2C136.52 69.2 134.9 70.5 134.9 72.36C134.9 73.96 136 74.96 137.96 75.34L139.68 75.66C141 75.92 141.54 76.3 141.54 77.18C141.54 78.18 140.6 78.68 139.18 78.68C137.56 78.68 136.5 77.86 136.42 76.54H134.48C134.68 78.82 136.34 80.2 139.14 80.2C141.96 80.2 143.58 78.92 143.58 76.84ZM147.845 66.94C147.845 66.16 147.245 65.6 146.385 65.6C145.525 65.6 144.905 66.16 144.905 66.94C144.905 67.7 145.525 68.28 146.385 68.28C147.245 68.28 147.845 67.7 147.845 66.94ZM147.405 80V69.4H145.385V80H147.405ZM151.829 74.02C151.829 72.14 152.989 70.98 154.369 70.98C155.869 70.98 156.669 72 156.669 73.82V80H158.689V73.14C158.689 70.6 157.249 69.2 155.069 69.2C153.609 69.2 152.409 69.98 151.689 71.16V69.4H149.809V80H151.829V74.02ZM165.332 80.2C167.832 80.2 169.652 78.78 170.172 76.42H168.172C167.832 77.8 166.792 78.62 165.292 78.62C163.512 78.62 162.432 77.36 162.272 75.2H170.172C170.532 71.76 168.432 69.2 165.272 69.2C162.352 69.2 160.212 71.5 160.212 74.64C160.212 77.98 162.272 80.2 165.332 80.2ZM165.232 70.72C166.872 70.72 167.932 71.9 168.032 73.86H162.292C162.512 71.88 163.612 70.72 165.232 70.72ZM180.32 76.84C180.32 75.32 179.32 74.4 177.22 74.02L175.42 73.68C174.14 73.44 173.6 73.04 173.6 72.18C173.6 71.26 174.46 70.72 175.74 70.72C177.16 70.72 178.1 71.46 178.22 72.74H180.16C179.98 70.56 178.26 69.2 175.72 69.2C173.26 69.2 171.64 70.5 171.64 72.36C171.64 73.96 172.74 74.96 174.7 75.34L176.42 75.66C177.74 75.92 178.28 76.3 178.28 77.18C178.28 78.18 177.34 78.68 175.92 78.68C174.3 78.68 173.24 77.86 173.16 76.54H171.22C171.42 78.82 173.08 80.2 175.88 80.2C178.7 80.2 180.32 78.92 180.32 76.84ZM190.525 76.84C190.525 75.32 189.525 74.4 187.425 74.02L185.625 73.68C184.345 73.44 183.805 73.04 183.805 72.18C183.805 71.26 184.665 70.72 185.945 70.72C187.365 70.72 188.305 71.46 188.425 72.74H190.365C190.185 70.56 188.465 69.2 185.925 69.2C183.465 69.2 181.845 70.5 181.845 72.36C181.845 73.96 182.945 74.96 184.905 75.34L186.625 75.66C187.945 75.92 188.485 76.3 188.485 77.18C188.485 78.18 187.545 78.68 186.125 78.68C184.505 78.68 183.445 77.86 183.365 76.54H181.425C181.625 78.82 183.285 80.2 186.085 80.2C188.905 80.2 190.525 78.92 190.525 76.84ZM196.69 80.2C199.19 80.2 201.01 78.78 201.53 76.42H199.53C199.19 77.8 198.15 78.62 196.65 78.62C194.87 78.62 193.79 77.36 193.63 75.2H201.53C201.89 71.76 199.79 69.2 196.63 69.2C193.71 69.2 191.57 71.5 191.57 74.64C191.57 77.98 193.63 80.2 196.69 80.2ZM196.59 70.72C198.23 70.72 199.29 71.9 199.39 73.86H193.65C193.87 71.88 194.97 70.72 196.59 70.72ZM211.678 76.84C211.678 75.32 210.678 74.4 208.578 74.02L206.778 73.68C205.498 73.44 204.958 73.04 204.958 72.18C204.958 71.26 205.818 70.72 207.098 70.72C208.518 70.72 209.458 71.46 209.578 72.74H211.518C211.338 70.56 209.618 69.2 207.078 69.2C204.618 69.2 202.998 70.5 202.998 72.36C202.998 73.96 204.098 74.96 206.058 75.34L207.778 75.66C209.098 75.92 209.638 76.3 209.638 77.18C209.638 78.18 208.698 78.68 207.278 78.68C205.658 78.68 204.598 77.86 204.518 76.54H202.578C202.778 78.82 204.438 80.2 207.238 80.2C210.058 80.2 211.678 78.92 211.678 76.84ZM29.64 116.08C32.64 116.08 34.42 114.42 34.42 111.64V101.4H32.54V103.28C31.82 101.94 30.62 101.2 29.1 101.2C26.44 101.2 24.64 103.32 24.64 106.48C24.64 109.6 26.52 111.78 29.16 111.78C30.6 111.78 31.8 111.04 32.4 109.76V111.68C32.4 113.5 31.44 114.48 29.62 114.48C27.98 114.48 27.02 113.68 26.9 112.2H24.94C25.06 114.6 26.86 116.08 29.64 116.08ZM26.68 106.48C26.68 104.3 27.78 102.94 29.52 102.94C31.26 102.94 32.4 104.34 32.4 106.54C32.4 108.64 31.24 110.02 29.52 110.02C27.76 110.02 26.68 108.68 26.68 106.48ZM38.8564 112V97.64H36.8164V112H38.8564ZM45.7002 112.2C48.7002 112.2 50.9002 109.84 50.9002 106.7C50.9002 103.56 48.7002 101.2 45.7002 101.2C42.7002 101.2 40.5002 103.56 40.5002 106.7C40.5002 109.84 42.7002 112.2 45.7002 112.2ZM45.7002 110.42C43.9602 110.42 42.6002 109.02 42.6002 106.7C42.6002 104.38 43.9602 103 45.7002 103C47.4402 103 48.8202 104.38 48.8202 106.7C48.8202 109.02 47.4402 110.42 45.7002 110.42ZM62.6794 106.7C62.6794 103.48 60.8194 101.2 57.9794 101.2C56.5394 101.2 55.3194 101.92 54.5794 103.22V97.64H52.5594V112H54.4394V110.1C55.1994 111.44 56.4794 112.2 57.9794 112.2C60.8394 112.2 62.6794 109.88 62.6794 106.7ZM60.5794 106.7C60.5794 109.06 59.3194 110.4 57.5794 110.4C55.8594 110.4 54.5794 109 54.5794 106.66C54.5794 104.28 55.8994 102.98 57.5794 102.98C59.3194 102.98 60.5794 104.3 60.5794 106.7ZM70.7473 112H72.4273V105.2C72.4273 102.68 70.9073 101.2 68.2873 101.2C65.8073 101.2 64.1073 102.78 64.0073 105.16H65.8473C65.9073 103.68 66.8073 102.8 68.2873 102.8C69.6873 102.8 70.5073 103.66 70.5073 105.18V105.96C69.6473 105.86 69.1473 105.84 68.5273 105.84C65.3673 105.84 63.7073 106.92 63.7073 109C63.7073 110.94 65.1473 112.2 67.3473 112.2C68.9073 112.2 70.0873 111.54 70.7473 110.36V112ZM65.6273 108.94C65.6273 107.7 66.6273 107.1 68.6473 107.1C69.1673 107.1 69.7273 107.12 70.5073 107.22V108.08C70.5073 109.7 69.4473 110.76 67.7473 110.76C66.4473 110.76 65.6273 110.04 65.6273 108.94ZM76.7681 112V97.64H74.7281V112H76.7681ZM81.2119 112V97.64H79.1719V112H81.2119ZM92.4156 101.4H90.3756L87.5156 109.48L84.4356 101.4H82.2556L86.4356 111.86L84.9156 115.86H87.1156L92.4156 101.4ZM100.21 112V103.12H103.17V101.4H100.21V100.64C100.21 99.62 100.77 99.18 101.73 99.18C102.09 99.18 102.45 99.22 102.77 99.36V97.72C102.37 97.56 101.89 97.46 101.29 97.46C99.2897 97.46 98.1897 98.58 98.1897 100.62V101.4H95.8497V103.12H98.1897V112H100.21ZM106.33 106.58C106.33 104.24 107.99 103.24 110.27 103.36V101.26C108.53 101.26 106.93 102.18 106.19 103.64V101.4H104.31V112H106.33V106.58ZM115.87 112.2C118.87 112.2 121.07 109.84 121.07 106.7C121.07 103.56 118.87 101.2 115.87 101.2C112.87 101.2 110.67 103.56 110.67 106.7C110.67 109.84 112.87 112.2 115.87 112.2ZM115.87 110.42C114.13 110.42 112.77 109.02 112.77 106.7C112.77 104.38 114.13 103 115.87 103C117.61 103 118.99 104.38 118.99 106.7C118.99 109.02 117.61 110.42 115.87 110.42ZM124.749 112V105.92C124.749 104.14 125.849 102.98 127.249 102.98C128.729 102.98 129.509 104.02 129.509 105.78V112H131.529V105.92C131.529 104.14 132.649 102.98 134.029 102.98C135.509 102.98 136.289 104.02 136.289 105.78V112H138.309V105.14C138.309 102.62 136.909 101.2 134.729 101.2C133.109 101.2 131.889 102.04 131.149 103.4C130.669 102 129.489 101.2 127.929 101.2C126.469 101.2 125.329 101.94 124.609 103.16V101.4H122.729V112H124.749ZM154.43 112H156.77L151.31 97.64H148.89L143.39 112H145.61L146.93 108.44H153.13L154.43 112ZM150.05 100.04L152.47 106.66H147.59L150.05 100.04ZM160.778 112V103.12H163.738V101.4H160.778V100.64C160.778 99.62 161.338 99.18 162.298 99.18C162.658 99.18 163.018 99.22 163.338 99.36V97.72C162.938 97.56 162.458 97.46 161.858 97.46C159.858 97.46 158.758 98.58 158.758 100.62V101.4H156.418V103.12H158.758V112H160.778ZM166.899 106.58C166.899 104.24 168.559 103.24 170.839 103.36V101.26C169.099 101.26 167.499 102.18 166.759 103.64V101.4H164.879V112H166.899V106.58ZM174.497 98.94C174.497 98.16 173.897 97.6 173.037 97.6C172.177 97.6 171.557 98.16 171.557 98.94C171.557 99.7 172.177 100.28 173.037 100.28C173.897 100.28 174.497 99.7 174.497 98.94ZM174.057 112V101.4H172.037V112H174.057ZM180.642 112.22C183.302 112.22 185.182 110.5 185.542 107.7H183.442C183.202 109.42 182.162 110.42 180.662 110.42C178.922 110.42 177.782 108.96 177.782 106.7C177.782 104.46 178.922 102.98 180.662 102.98C182.142 102.98 183.202 104 183.422 105.7H185.542C185.162 102.94 183.262 101.2 180.642 101.2C177.782 101.2 175.702 103.5 175.702 106.7C175.702 109.94 177.742 112.22 180.642 112.22ZM193.595 112H195.275V105.2C195.275 102.68 193.755 101.2 191.135 101.2C188.655 101.2 186.955 102.78 186.855 105.16H188.695C188.755 103.68 189.655 102.8 191.135 102.8C192.535 102.8 193.355 103.66 193.355 105.18V105.96C192.495 105.86 191.995 105.84 191.375 105.84C188.215 105.84 186.555 106.92 186.555 109C186.555 110.94 187.995 112.2 190.195 112.2C191.755 112.2 192.935 111.54 193.595 110.36V112ZM188.475 108.94C188.475 107.7 189.475 107.1 191.495 107.1C192.015 107.1 192.575 107.12 193.355 107.22V108.08C193.355 109.7 192.295 110.76 190.595 110.76C189.295 110.76 188.475 110.04 188.475 108.94Z" fill="white"/>
<rect x="24" y="212" width="130" height="48" rx="8" fill="#0A0A0A"/>
<path d="M55.0347 233.117C54.9883 232.683 54.7928 232.345 54.4481 232.103C54.1067 231.861 53.6626 231.74 53.1157 231.74C52.7312 231.74 52.4014 231.798 52.1263 231.914C51.8512 232.03 51.6408 232.187 51.4949 232.386C51.3491 232.585 51.2745 232.812 51.2712 233.067C51.2712 233.28 51.3193 233.464 51.4154 233.619C51.5148 233.775 51.6491 233.908 51.8181 234.017C51.9871 234.123 52.1744 234.213 52.3799 234.286C52.5854 234.358 52.7925 234.42 53.0013 234.469L53.9559 234.708C54.3403 234.798 54.7099 234.919 55.0645 235.071C55.4225 235.223 55.7423 235.416 56.0241 235.648C56.3091 235.88 56.5345 236.16 56.7002 236.488C56.8659 236.816 56.9488 237.201 56.9488 237.641C56.9488 238.238 56.7963 238.763 56.4914 239.217C56.1865 239.668 55.7457 240.021 55.1689 240.276C54.5956 240.528 53.9012 240.654 53.0858 240.654C52.2937 240.654 51.606 240.531 51.0226 240.286C50.4426 240.041 49.9885 239.683 49.6604 239.212C49.3356 238.742 49.1599 238.168 49.1334 237.492H50.9481C50.9746 237.847 51.084 238.142 51.2762 238.377C51.4684 238.612 51.7187 238.788 52.0269 238.904C52.3385 239.02 52.6865 239.078 53.0709 239.078C53.472 239.078 53.8233 239.018 54.1249 238.899C54.4298 238.777 54.6685 238.607 54.8408 238.392C55.0132 238.173 55.101 237.918 55.1043 237.626C55.101 237.361 55.0231 237.143 54.8706 236.97C54.7182 236.795 54.5044 236.649 54.2293 236.533C53.9575 236.413 53.6394 236.307 53.2748 236.214L52.1164 235.916C51.2778 235.701 50.615 235.374 50.1278 234.937C49.6439 234.496 49.4019 233.911 49.4019 233.182C49.4019 232.582 49.5643 232.057 49.8891 231.606C50.2172 231.155 50.663 230.805 51.2265 230.557C51.7899 230.305 52.4279 230.179 53.1405 230.179C53.8631 230.179 54.4961 230.305 55.0397 230.557C55.5866 230.805 56.0158 231.152 56.3273 231.596C56.6389 232.037 56.7996 232.544 56.8096 233.117H55.0347ZM61.8943 240.649C61.1286 240.649 60.4674 240.49 59.9106 240.172C59.3571 239.85 58.9312 239.396 58.6329 238.81C58.3346 238.22 58.1855 237.525 58.1855 236.727C58.1855 235.941 58.3346 235.252 58.6329 234.658C58.9345 234.062 59.3554 233.598 59.8957 233.266C60.4359 232.932 61.0706 232.764 61.7998 232.764C62.2704 232.764 62.7146 232.84 63.1322 232.993C63.5531 233.142 63.9243 233.374 64.2458 233.689C64.5706 234.004 64.8258 234.405 65.0115 234.892C65.1971 235.376 65.2899 235.953 65.2899 236.622V237.174H59.0306V235.961H63.5647C63.5614 235.616 63.4868 235.31 63.341 235.041C63.1952 234.769 62.9913 234.556 62.7295 234.4C62.471 234.244 62.1694 234.166 61.8247 234.166C61.4568 234.166 61.1336 234.256 60.8552 234.435C60.5768 234.61 60.3597 234.842 60.2039 235.131C60.0515 235.416 59.9736 235.729 59.9703 236.07V237.129C59.9703 237.573 60.0515 237.955 60.2139 238.273C60.3763 238.588 60.6033 238.83 60.895 238.999C61.1866 239.164 61.528 239.247 61.9191 239.247C62.181 239.247 62.4179 239.211 62.6301 239.138C62.8422 239.062 63.0261 238.951 63.1819 238.805C63.3377 238.659 63.4553 238.478 63.5349 238.263L65.2153 238.452C65.1092 238.896 64.907 239.284 64.6088 239.615C64.3138 239.943 63.9359 240.198 63.4752 240.381C63.0145 240.56 62.4875 240.649 61.8943 240.649ZM68.6121 236.026V240.5H66.8124V232.864H68.5326V234.161H68.6221C68.7977 233.734 69.0778 233.394 69.4623 233.142C69.8501 232.89 70.329 232.764 70.8991 232.764C71.426 232.764 71.8851 232.877 72.2762 233.102C72.6706 233.328 72.9755 233.654 73.191 234.082C73.4097 234.509 73.5174 235.028 73.5141 235.638V240.5H71.7144V235.916C71.7144 235.406 71.5818 235.006 71.3167 234.718C71.0548 234.43 70.6919 234.286 70.2279 234.286C69.913 234.286 69.633 234.355 69.3877 234.494C69.1457 234.63 68.9552 234.827 68.816 235.086C68.6801 235.344 68.6121 235.658 68.6121 236.026ZM78.1775 240.634C77.5776 240.634 77.0406 240.48 76.5667 240.172C76.0927 239.864 75.7182 239.416 75.4431 238.83C75.168 238.243 75.0305 237.53 75.0305 236.692C75.0305 235.843 75.1697 235.127 75.4481 234.544C75.7298 233.957 76.1093 233.515 76.5866 233.217C77.0638 232.915 77.5958 232.764 78.1824 232.764C78.6299 232.764 78.9978 232.84 79.2861 232.993C79.5745 233.142 79.8032 233.323 79.9722 233.535C80.1412 233.744 80.2722 233.941 80.365 234.126H80.4395V230.318H82.2442V240.5H80.4743V239.297H80.365C80.2722 239.482 80.1379 239.68 79.9623 239.888C79.7866 240.094 79.5546 240.27 79.2662 240.415C78.9779 240.561 78.615 240.634 78.1775 240.634ZM78.6796 239.158C79.0608 239.158 79.3856 239.055 79.654 238.849C79.9225 238.641 80.1263 238.351 80.2655 237.979C80.4047 237.608 80.4743 237.176 80.4743 236.682C80.4743 236.188 80.4047 235.759 80.2655 235.394C80.1296 235.03 79.9275 234.746 79.659 234.544C79.3939 234.342 79.0674 234.241 78.6796 234.241C78.2786 234.241 77.9438 234.345 77.6753 234.554C77.4069 234.763 77.2047 235.051 77.0688 235.419C76.9329 235.787 76.865 236.208 76.865 236.682C76.865 237.159 76.9329 237.585 77.0688 237.96C77.208 238.331 77.4118 238.624 77.6803 238.839C77.9521 239.052 78.2852 239.158 78.6796 239.158ZM89.8321 240.654C89.3482 240.654 88.9124 240.568 88.5246 240.396C88.1401 240.22 87.8352 239.961 87.6098 239.62C87.3878 239.279 87.2767 238.858 87.2767 238.357C87.2767 237.926 87.3563 237.57 87.5154 237.288C87.6744 237.007 87.8915 236.781 88.1666 236.612C88.4417 236.443 88.7516 236.316 89.0963 236.229C89.4443 236.14 89.8039 236.075 90.1752 236.036C90.6226 235.989 90.9855 235.948 91.2639 235.911C91.5423 235.871 91.7445 235.812 91.8705 235.732C91.9997 235.649 92.0644 235.522 92.0644 235.349V235.32C92.0644 234.945 91.9533 234.655 91.7313 234.45C91.5092 234.244 91.1894 234.141 90.7718 234.141C90.3309 234.141 89.9813 234.237 89.7227 234.43C89.4675 234.622 89.2952 234.849 89.2057 235.111L87.5253 234.872C87.6579 234.408 87.8766 234.02 88.1816 233.709C88.4865 233.394 88.8593 233.159 89.3002 233.003C89.741 232.844 90.2282 232.764 90.7618 232.764C91.1297 232.764 91.4959 232.807 91.8605 232.893C92.2251 232.98 92.5582 233.122 92.8598 233.321C93.1614 233.517 93.4034 233.783 93.5857 234.121C93.7713 234.46 93.8641 234.882 93.8641 235.389V240.5H92.134V239.451H92.0743C91.9649 239.663 91.8108 239.862 91.6119 240.048C91.4164 240.23 91.1695 240.377 90.8712 240.49C90.5762 240.599 90.2298 240.654 89.8321 240.654ZM90.2994 239.332C90.6607 239.332 90.9739 239.26 91.2391 239.118C91.5042 238.972 91.7081 238.78 91.8506 238.541C91.9964 238.303 92.0693 238.042 92.0693 237.761V236.861C92.013 236.907 91.9169 236.95 91.781 236.99C91.6484 237.03 91.4993 237.065 91.3335 237.094C91.1678 237.124 91.0038 237.151 90.8414 237.174C90.6789 237.197 90.5381 237.217 90.4188 237.234C90.1503 237.27 89.91 237.33 89.6979 237.413C89.4858 237.496 89.3184 237.612 89.1958 237.761C89.0731 237.906 89.0118 238.095 89.0118 238.327C89.0118 238.659 89.1328 238.909 89.3747 239.078C89.6167 239.247 89.9249 239.332 90.2994 239.332ZM101.369 240.5L98.4951 230.318H100.479L102.313 237.8H102.408L104.367 230.318H106.171L108.135 237.805H108.225L110.059 230.318H112.043L109.169 240.5H107.35L105.311 233.356H105.232L103.188 240.5H101.369ZM113.242 240.5V232.864H115.042V240.5H113.242ZM114.147 231.78C113.862 231.78 113.617 231.685 113.411 231.496C113.206 231.304 113.103 231.074 113.103 230.805C113.103 230.534 113.206 230.303 113.411 230.114C113.617 229.922 113.862 229.826 114.147 229.826C114.435 229.826 114.681 229.922 114.883 230.114C115.088 230.303 115.191 230.534 115.191 230.805C115.191 231.074 115.088 231.304 114.883 231.496C114.681 231.685 114.435 231.78 114.147 231.78ZM116.892 240.5V232.864H118.638V234.136H118.717C118.856 233.696 119.095 233.356 119.433 233.117C119.774 232.875 120.164 232.754 120.601 232.754C120.701 232.754 120.812 232.759 120.934 232.769C121.06 232.776 121.165 232.787 121.248 232.804V234.46C121.171 234.433 121.05 234.41 120.885 234.39C120.722 234.367 120.565 234.355 120.412 234.355C120.084 234.355 119.789 234.426 119.527 234.569C119.269 234.708 119.065 234.902 118.916 235.151C118.767 235.399 118.692 235.686 118.692 236.011V240.5H116.892ZM125.509 240.649C124.744 240.649 124.083 240.49 123.526 240.172C122.972 239.85 122.546 239.396 122.248 238.81C121.95 238.22 121.801 237.525 121.801 236.727C121.801 235.941 121.95 235.252 122.248 234.658C122.55 234.062 122.971 233.598 123.511 233.266C124.051 232.932 124.686 232.764 125.415 232.764C125.886 232.764 126.33 232.84 126.747 232.993C127.168 233.142 127.54 233.374 127.861 233.689C128.186 234.004 128.441 234.405 128.627 234.892C128.812 235.376 128.905 235.953 128.905 236.622V237.174H122.646V235.961H127.18C127.177 235.616 127.102 235.31 126.956 235.041C126.81 234.769 126.607 234.556 126.345 234.4C126.086 234.244 125.785 234.166 125.44 234.166C125.072 234.166 124.749 234.256 124.47 234.435C124.192 234.61 123.975 234.842 123.819 235.131C123.667 235.416 123.589 235.729 123.585 236.07V237.129C123.585 237.573 123.667 237.955 123.829 238.273C123.992 238.588 124.219 238.83 124.51 238.999C124.802 239.164 125.143 239.247 125.534 239.247C125.796 239.247 126.033 239.211 126.245 239.138C126.457 239.062 126.641 238.951 126.797 238.805C126.953 238.659 127.071 238.478 127.15 238.263L128.831 238.452C128.724 238.896 128.522 239.284 128.224 239.615C127.929 239.943 127.551 240.198 127.09 240.381C126.63 240.56 126.103 240.649 125.509 240.649Z" fill="white"/>
</g>
<defs>
<linearGradient id="paint0_linear_2_3706" x1="121.325" y1="341.951" x2="112.469" y2="-6.92035" gradientUnits="userSpaceOnUse">
<stop stop-color="white" stop-opacity="0"/>
<stop offset="0.421791" stop-color="white"/>
<stop offset="1" stop-color="white" stop-opacity="0"/>
</linearGradient>
<linearGradient id="paint1_linear_2_3706" x1="129.501" y1="304.58" x2="158.36" y2="64.9238" gradientUnits="userSpaceOnUse">
<stop stop-color="white" stop-opacity="0"/>
<stop offset="0.421791" stop-color="white"/>
<stop offset="1" stop-color="white" stop-opacity="0"/>
</linearGradient>
<linearGradient id="paint2_linear_2_3706" x1="303.906" y1="54.0696" x2="303.133" y2="-166.846" gradientUnits="userSpaceOnUse">
<stop stop-color="white"/>
<stop offset="1" stop-opacity="0"/>
<stop offset="1" stop-color="white" stop-opacity="0"/>
</linearGradient>
<linearGradient id="paint3_linear_2_3706" x1="87.2528" y1="-67" x2="296.287" y2="174.77" gradientUnits="userSpaceOnUse">
<stop stop-color="white" stop-opacity="0"/>
<stop offset="0.514057" stop-color="white"/>
<stop offset="1" stop-color="white" stop-opacity="0"/>
</linearGradient>
<clipPath id="clip0_2_3706">
<rect width="304" height="284" rx="8" fill="white"/>
</clipPath>
</defs>
</svg>
