<svg width="768" height="284" viewBox="0 0 768 284" fill="none" xmlns="http://www.w3.org/2000/svg">
<rect x="0.5" y="0.5" width="767" height="283" rx="7.5" fill="white"/>
<path d="M97.9085 245V244.105L101.269 240.426C101.664 239.995 101.988 239.621 102.244 239.303C102.499 238.981 102.688 238.679 102.81 238.398C102.936 238.113 102.999 237.814 102.999 237.503C102.999 237.145 102.913 236.835 102.741 236.573C102.572 236.311 102.34 236.109 102.045 235.967C101.75 235.824 101.418 235.753 101.051 235.753C100.659 235.753 100.318 235.834 100.026 235.996C99.738 236.156 99.5143 236.379 99.3552 236.668C99.1994 236.956 99.1215 237.294 99.1215 237.682H97.9482C97.9482 237.085 98.0858 236.562 98.3609 236.111C98.636 235.66 99.0105 235.309 99.4845 235.057C99.9617 234.805 100.497 234.679 101.09 234.679C101.687 234.679 102.216 234.805 102.676 235.057C103.137 235.309 103.498 235.648 103.76 236.076C104.022 236.504 104.153 236.979 104.153 237.503C104.153 237.877 104.085 238.244 103.949 238.602C103.816 238.956 103.584 239.352 103.253 239.79C102.925 240.224 102.469 240.754 101.886 241.381L99.5988 243.827V243.906H104.332V245H97.9085ZM109.706 245.139C108.957 245.139 108.319 244.935 107.792 244.528C107.265 244.117 106.862 243.522 106.584 242.743C106.305 241.961 106.166 241.016 106.166 239.909C106.166 238.809 106.305 237.869 106.584 237.09C106.866 236.308 107.27 235.711 107.797 235.3C108.327 234.886 108.964 234.679 109.706 234.679C110.448 234.679 111.083 234.886 111.61 235.3C112.14 235.711 112.545 236.308 112.823 237.09C113.105 237.869 113.246 238.809 113.246 239.909C113.246 241.016 113.107 241.961 112.828 242.743C112.55 243.522 112.147 244.117 111.62 244.528C111.093 244.935 110.455 245.139 109.706 245.139ZM109.706 244.045C110.448 244.045 111.025 243.687 111.436 242.972C111.847 242.256 112.053 241.235 112.053 239.909C112.053 239.027 111.958 238.277 111.769 237.657C111.584 237.037 111.315 236.565 110.964 236.24C110.616 235.915 110.197 235.753 109.706 235.753C108.97 235.753 108.395 236.116 107.981 236.842C107.567 237.564 107.359 238.587 107.359 239.909C107.359 240.791 107.452 241.54 107.638 242.156C107.823 242.773 108.09 243.242 108.438 243.563C108.79 243.885 109.212 244.045 109.706 244.045ZM119.669 245H118.377L122.115 234.818H123.388L127.127 245H125.834L122.791 236.429H122.712L119.669 245ZM120.146 241.023H125.357V242.116H120.146V241.023ZM133.366 241.878V237.364H134.539V245H133.366V243.707H133.286C133.107 244.095 132.829 244.425 132.451 244.697C132.073 244.965 131.596 245.099 131.019 245.099C130.542 245.099 130.118 244.995 129.747 244.786C129.375 244.574 129.084 244.256 128.872 243.832C128.659 243.404 128.553 242.866 128.553 242.216V237.364H129.727V242.136C129.727 242.693 129.882 243.137 130.194 243.469C130.509 243.8 130.91 243.966 131.397 243.966C131.689 243.966 131.985 243.891 132.287 243.742C132.592 243.593 132.847 243.364 133.053 243.056C133.261 242.748 133.366 242.355 133.366 241.878ZM139.771 248.023C139.204 248.023 138.717 247.95 138.309 247.804C137.901 247.661 137.561 247.473 137.29 247.237C137.021 247.005 136.807 246.757 136.648 246.491L137.583 245.835C137.689 245.974 137.823 246.134 137.986 246.312C138.148 246.495 138.37 246.652 138.652 246.785C138.937 246.921 139.31 246.989 139.771 246.989C140.387 246.989 140.896 246.839 141.297 246.541C141.698 246.243 141.898 245.776 141.898 245.139V243.588H141.799C141.713 243.727 141.59 243.9 141.431 244.105C141.275 244.307 141.05 244.488 140.755 244.647C140.463 244.803 140.069 244.881 139.572 244.881C138.955 244.881 138.402 244.735 137.911 244.443C137.424 244.152 137.038 243.727 136.753 243.17C136.471 242.614 136.33 241.937 136.33 241.142C136.33 240.36 136.468 239.679 136.743 239.099C137.018 238.515 137.401 238.065 137.891 237.746C138.382 237.425 138.949 237.264 139.592 237.264C140.089 237.264 140.483 237.347 140.775 237.513C141.07 237.675 141.295 237.861 141.451 238.07C141.61 238.275 141.733 238.444 141.819 238.577H141.938V237.364H143.072V245.219C143.072 245.875 142.922 246.409 142.624 246.82C142.329 247.234 141.931 247.537 141.431 247.729C140.934 247.925 140.38 248.023 139.771 248.023ZM139.731 243.827C140.201 243.827 140.599 243.719 140.924 243.504C141.249 243.288 141.496 242.978 141.665 242.574C141.834 242.17 141.918 241.686 141.918 241.122C141.918 240.572 141.835 240.086 141.67 239.665C141.504 239.245 141.259 238.915 140.934 238.676C140.609 238.437 140.208 238.318 139.731 238.318C139.234 238.318 138.819 238.444 138.488 238.696C138.16 238.948 137.913 239.286 137.747 239.71C137.585 240.134 137.503 240.605 137.503 241.122C137.503 241.652 137.586 242.121 137.752 242.529C137.921 242.933 138.17 243.252 138.498 243.484C138.829 243.712 139.24 243.827 139.731 243.827Z" fill="#0A0A0A"/>
<path d="M216.03 245V244.105L219.39 240.426C219.785 239.995 220.11 239.621 220.365 239.303C220.62 238.981 220.809 238.679 220.932 238.398C221.057 238.113 221.12 237.814 221.12 237.503C221.12 237.145 221.034 236.835 220.862 236.573C220.693 236.311 220.461 236.109 220.166 235.967C219.871 235.824 219.54 235.753 219.172 235.753C218.781 235.753 218.439 235.834 218.147 235.996C217.859 236.156 217.635 236.379 217.476 236.668C217.321 236.956 217.243 237.294 217.243 237.682H216.069C216.069 237.085 216.207 236.562 216.482 236.111C216.757 235.66 217.132 235.309 217.606 235.057C218.083 234.805 218.618 234.679 219.211 234.679C219.808 234.679 220.337 234.805 220.797 235.057C221.258 235.309 221.619 235.648 221.881 236.076C222.143 236.504 222.274 236.979 222.274 237.503C222.274 237.877 222.206 238.244 222.07 238.602C221.937 238.956 221.705 239.352 221.374 239.79C221.046 240.224 220.59 240.754 220.007 241.381L217.72 243.827V243.906H222.453V245H216.03ZM228.086 234.818V245H226.853V236.111H226.793L224.307 237.761V236.509L226.853 234.818H228.086ZM235.548 245H234.255L237.994 234.818H239.267L243.005 245H241.713L238.67 236.429H238.591L235.548 245ZM236.025 241.023H241.236V242.116H236.025V241.023ZM249.245 241.878V237.364H250.418V245H249.245V243.707H249.165C248.986 244.095 248.708 244.425 248.33 244.697C247.952 244.965 247.475 245.099 246.898 245.099C246.421 245.099 245.997 244.995 245.625 244.786C245.254 244.574 244.963 244.256 244.75 243.832C244.538 243.404 244.432 242.866 244.432 242.216V237.364H245.606V242.136C245.606 242.693 245.761 243.137 246.073 243.469C246.388 243.8 246.789 243.966 247.276 243.966C247.568 243.966 247.864 243.891 248.166 243.742C248.471 243.593 248.726 243.364 248.932 243.056C249.14 242.748 249.245 242.355 249.245 241.878ZM255.649 248.023C255.083 248.023 254.595 247.95 254.188 247.804C253.78 247.661 253.44 247.473 253.169 247.237C252.9 247.005 252.686 246.757 252.527 246.491L253.462 245.835C253.568 245.974 253.702 246.134 253.865 246.312C254.027 246.495 254.249 246.652 254.531 246.785C254.816 246.921 255.189 246.989 255.649 246.989C256.266 246.989 256.775 246.839 257.176 246.541C257.577 246.243 257.777 245.776 257.777 245.139V243.588H257.678C257.592 243.727 257.469 243.9 257.31 244.105C257.154 244.307 256.929 244.488 256.634 244.647C256.342 244.803 255.948 244.881 255.451 244.881C254.834 244.881 254.281 244.735 253.79 244.443C253.303 244.152 252.917 243.727 252.632 243.17C252.35 242.614 252.209 241.937 252.209 241.142C252.209 240.36 252.347 239.679 252.622 239.099C252.897 238.515 253.28 238.065 253.77 237.746C254.261 237.425 254.827 237.264 255.47 237.264C255.968 237.264 256.362 237.347 256.654 237.513C256.949 237.675 257.174 237.861 257.33 238.07C257.489 238.275 257.612 238.444 257.698 238.577H257.817V237.364H258.951V245.219C258.951 245.875 258.801 246.409 258.503 246.82C258.208 247.234 257.81 247.537 257.31 247.729C256.813 247.925 256.259 248.023 255.649 248.023ZM255.61 243.827C256.08 243.827 256.478 243.719 256.803 243.504C257.128 243.288 257.375 242.978 257.544 242.574C257.713 242.17 257.797 241.686 257.797 241.122C257.797 240.572 257.714 240.086 257.549 239.665C257.383 239.245 257.138 238.915 256.813 238.676C256.488 238.437 256.087 238.318 255.61 238.318C255.112 238.318 254.698 238.444 254.367 238.696C254.039 238.948 253.792 239.286 253.626 239.71C253.464 240.134 253.382 240.605 253.382 241.122C253.382 241.652 253.465 242.121 253.631 242.529C253.8 242.933 254.049 243.252 254.377 243.484C254.708 243.712 255.119 243.827 255.61 243.827Z" fill="#0A0A0A"/>
<path d="M332.045 245V244.105L335.406 240.426C335.8 239.995 336.125 239.621 336.38 239.303C336.636 238.981 336.825 238.679 336.947 238.398C337.073 238.113 337.136 237.814 337.136 237.503C337.136 237.145 337.05 236.835 336.878 236.573C336.709 236.311 336.477 236.109 336.182 235.967C335.887 235.824 335.555 235.753 335.187 235.753C334.796 235.753 334.455 235.834 334.163 235.996C333.875 236.156 333.651 236.379 333.492 236.668C333.336 236.956 333.258 237.294 333.258 237.682H332.085C332.085 237.085 332.223 236.562 332.498 236.111C332.773 235.66 333.147 235.309 333.621 235.057C334.098 234.805 334.634 234.679 335.227 234.679C335.824 234.679 336.352 234.805 336.813 235.057C337.274 235.309 337.635 235.648 337.897 236.076C338.159 236.504 338.29 236.979 338.29 237.503C338.29 237.877 338.222 238.244 338.086 238.602C337.953 238.956 337.721 239.352 337.39 239.79C337.062 240.224 336.606 240.754 336.022 241.381L333.736 243.827V243.906H338.468V245H332.045ZM340.522 245V244.105L343.883 240.426C344.277 239.995 344.602 239.621 344.857 239.303C345.112 238.981 345.301 238.679 345.424 238.398C345.55 238.113 345.613 237.814 345.613 237.503C345.613 237.145 345.526 236.835 345.354 236.573C345.185 236.311 344.953 236.109 344.658 235.967C344.363 235.824 344.032 235.753 343.664 235.753C343.273 235.753 342.931 235.834 342.64 235.996C342.351 236.156 342.128 236.379 341.968 236.668C341.813 236.956 341.735 237.294 341.735 237.682H340.562C340.562 237.085 340.699 236.562 340.974 236.111C341.249 235.66 341.624 235.309 342.098 235.057C342.575 234.805 343.11 234.679 343.704 234.679C344.3 234.679 344.829 234.805 345.29 235.057C345.75 235.309 346.111 235.648 346.373 236.076C346.635 236.504 346.766 236.979 346.766 237.503C346.766 237.877 346.698 238.244 346.562 238.602C346.43 238.956 346.198 239.352 345.866 239.79C345.538 240.224 345.082 240.754 344.499 241.381L342.212 243.827V243.906H346.945V245H340.522ZM353.532 245H352.24L355.978 234.818H357.251L360.99 245H359.697L356.655 236.429H356.575L353.532 245ZM354.01 241.023H359.22V242.116H354.01V241.023ZM367.229 241.878V237.364H368.402V245H367.229V243.707H367.15C366.971 244.095 366.692 244.425 366.314 244.697C365.937 244.965 365.459 245.099 364.883 245.099C364.405 245.099 363.981 244.995 363.61 244.786C363.239 244.574 362.947 244.256 362.735 243.832C362.523 243.404 362.417 242.866 362.417 242.216V237.364H363.59V242.136C363.59 242.693 363.746 243.137 364.057 243.469C364.372 243.8 364.773 243.966 365.26 243.966C365.552 243.966 365.849 243.891 366.15 243.742C366.455 243.593 366.71 243.364 366.916 243.056C367.125 242.748 367.229 242.355 367.229 241.878ZM373.634 248.023C373.067 248.023 372.58 247.95 372.172 247.804C371.764 247.661 371.425 247.473 371.153 247.237C370.884 247.005 370.671 246.757 370.512 246.491L371.446 245.835C371.552 245.974 371.687 246.134 371.849 246.312C372.011 246.495 372.233 246.652 372.515 246.785C372.8 246.921 373.173 246.989 373.634 246.989C374.25 246.989 374.759 246.839 375.16 246.541C375.561 246.243 375.762 245.776 375.762 245.139V243.588H375.662C375.576 243.727 375.453 243.9 375.294 244.105C375.139 244.307 374.913 244.488 374.618 244.647C374.326 244.803 373.932 244.881 373.435 244.881C372.818 244.881 372.265 244.735 371.774 244.443C371.287 244.152 370.901 243.727 370.616 243.17C370.334 242.614 370.193 241.937 370.193 241.142C370.193 240.36 370.331 239.679 370.606 239.099C370.881 238.515 371.264 238.065 371.755 237.746C372.245 237.425 372.812 237.264 373.455 237.264C373.952 237.264 374.346 237.347 374.638 237.513C374.933 237.675 375.158 237.861 375.314 238.07C375.473 238.275 375.596 238.444 375.682 238.577H375.801V237.364H376.935V245.219C376.935 245.875 376.786 246.409 376.487 246.82C376.193 247.234 375.795 247.537 375.294 247.729C374.797 247.925 374.244 248.023 373.634 248.023ZM373.594 243.827C374.065 243.827 374.462 243.719 374.787 243.504C375.112 243.288 375.359 242.978 375.528 242.574C375.697 242.17 375.782 241.686 375.782 241.122C375.782 240.572 375.699 240.086 375.533 239.665C375.367 239.245 375.122 238.915 374.797 238.676C374.472 238.437 374.071 238.318 373.594 238.318C373.097 238.318 372.683 238.444 372.351 238.696C372.023 238.948 371.776 239.286 371.61 239.71C371.448 240.134 371.367 240.605 371.367 241.122C371.367 241.652 371.45 242.121 371.615 242.529C371.784 242.933 372.033 243.252 372.361 243.484C372.693 243.712 373.103 243.827 373.594 243.827Z" fill="#0A0A0A"/>
<path d="M448.826 245V244.105L452.187 240.426C452.582 239.995 452.906 239.621 453.162 239.303C453.417 238.981 453.606 238.679 453.728 238.398C453.854 238.113 453.917 237.814 453.917 237.503C453.917 237.145 453.831 236.835 453.659 236.573C453.49 236.311 453.258 236.109 452.963 235.967C452.668 235.824 452.336 235.753 451.968 235.753C451.577 235.753 451.236 235.834 450.944 235.996C450.656 236.156 450.432 236.379 450.273 236.668C450.117 236.956 450.04 237.294 450.04 237.682H448.866C448.866 237.085 449.004 236.562 449.279 236.111C449.554 235.66 449.928 235.309 450.402 235.057C450.88 234.805 451.415 234.679 452.008 234.679C452.605 234.679 453.133 234.805 453.594 235.057C454.055 235.309 454.416 235.648 454.678 236.076C454.94 236.504 455.071 236.979 455.071 237.503C455.071 237.877 455.003 238.244 454.867 238.602C454.734 238.956 454.502 239.352 454.171 239.79C453.843 240.224 453.387 240.754 452.804 241.381L450.517 243.827V243.906H455.25V245H448.826ZM460.743 245.139C460.087 245.139 459.502 245.027 458.988 244.801C458.478 244.576 458.072 244.263 457.77 243.862C457.472 243.457 457.31 242.988 457.283 242.455H458.536C458.562 242.783 458.675 243.066 458.874 243.305C459.073 243.54 459.333 243.722 459.655 243.852C459.976 243.981 460.332 244.045 460.723 244.045C461.161 244.045 461.549 243.969 461.887 243.817C462.225 243.664 462.49 243.452 462.682 243.18C462.874 242.909 462.971 242.594 462.971 242.236C462.971 241.861 462.878 241.531 462.692 241.246C462.507 240.958 462.235 240.733 461.877 240.57C461.519 240.408 461.081 240.327 460.564 240.327H459.749V239.233H460.564C460.969 239.233 461.323 239.16 461.628 239.014C461.937 238.868 462.177 238.663 462.349 238.398C462.525 238.133 462.613 237.821 462.613 237.463C462.613 237.118 462.536 236.818 462.384 236.563C462.232 236.308 462.016 236.109 461.738 235.967C461.463 235.824 461.138 235.753 460.763 235.753C460.412 235.753 460.08 235.817 459.769 235.947C459.461 236.073 459.209 236.257 459.013 236.499C458.818 236.737 458.712 237.026 458.695 237.364H457.502C457.522 236.83 457.682 236.363 457.984 235.962C458.286 235.557 458.68 235.242 459.167 235.017C459.658 234.792 460.196 234.679 460.783 234.679C461.413 234.679 461.953 234.807 462.404 235.062C462.855 235.314 463.201 235.647 463.443 236.061C463.685 236.475 463.806 236.923 463.806 237.403C463.806 237.977 463.655 238.466 463.353 238.87C463.055 239.274 462.649 239.554 462.135 239.71V239.79C462.778 239.896 463.281 240.169 463.642 240.61C464.003 241.048 464.184 241.589 464.184 242.236C464.184 242.789 464.033 243.286 463.731 243.727C463.433 244.165 463.025 244.509 462.508 244.761C461.991 245.013 461.403 245.139 460.743 245.139ZM470.751 245H469.459L473.197 234.818H474.47L478.209 245H476.916L473.873 236.429H473.794L470.751 245ZM471.228 241.023H476.439V242.116H471.228V241.023ZM484.448 241.878V237.364H485.621V245H484.448V243.707H484.368C484.189 244.095 483.911 244.425 483.533 244.697C483.155 244.965 482.678 245.099 482.101 245.099C481.624 245.099 481.2 244.995 480.829 244.786C480.457 244.574 480.166 244.256 479.954 243.832C479.741 243.404 479.635 242.866 479.635 242.216V237.364H480.809V242.136C480.809 242.693 480.964 243.137 481.276 243.469C481.591 243.8 481.992 243.966 482.479 243.966C482.771 243.966 483.067 243.891 483.369 243.742C483.674 243.593 483.929 243.364 484.135 243.056C484.343 242.748 484.448 242.355 484.448 241.878ZM490.853 248.023C490.286 248.023 489.799 247.95 489.391 247.804C488.983 247.661 488.643 247.473 488.372 247.237C488.103 247.005 487.889 246.757 487.73 246.491L488.665 245.835C488.771 245.974 488.905 246.134 489.068 246.312C489.23 246.495 489.452 246.652 489.734 246.785C490.019 246.921 490.392 246.989 490.853 246.989C491.469 246.989 491.978 246.839 492.379 246.541C492.78 246.243 492.98 245.776 492.98 245.139V243.588H492.881C492.795 243.727 492.672 243.9 492.513 244.105C492.357 244.307 492.132 244.488 491.837 244.647C491.545 244.803 491.151 244.881 490.654 244.881C490.037 244.881 489.484 244.735 488.993 244.443C488.506 244.152 488.12 243.727 487.835 243.17C487.553 242.614 487.412 241.937 487.412 241.142C487.412 240.36 487.55 239.679 487.825 239.099C488.1 238.515 488.483 238.065 488.973 237.746C489.464 237.425 490.031 237.264 490.674 237.264C491.171 237.264 491.565 237.347 491.857 237.513C492.152 237.675 492.377 237.861 492.533 238.07C492.692 238.275 492.815 238.444 492.901 238.577H493.02V237.364H494.154V245.219C494.154 245.875 494.005 246.409 493.706 246.82C493.411 247.234 493.014 247.537 492.513 247.729C492.016 247.925 491.462 248.023 490.853 248.023ZM490.813 243.827C491.283 243.827 491.681 243.719 492.006 243.504C492.331 243.288 492.578 242.978 492.747 242.574C492.916 242.17 493 241.686 493 241.122C493 240.572 492.917 240.086 492.752 239.665C492.586 239.245 492.341 238.915 492.016 238.676C491.691 238.437 491.29 238.318 490.813 238.318C490.316 238.318 489.901 238.444 489.57 238.696C489.242 238.948 488.995 239.286 488.829 239.71C488.667 240.134 488.585 240.605 488.585 241.122C488.585 241.652 488.668 242.121 488.834 242.529C489.003 242.933 489.252 243.252 489.58 243.484C489.911 243.712 490.322 243.827 490.813 243.827Z" fill="#0A0A0A"/>
<path d="M565.902 245V244.105L569.262 240.426C569.657 239.995 569.982 239.621 570.237 239.303C570.492 238.981 570.681 238.679 570.804 238.398C570.93 238.113 570.993 237.814 570.993 237.503C570.993 237.145 570.906 236.835 570.734 236.573C570.565 236.311 570.333 236.109 570.038 235.967C569.743 235.824 569.412 235.753 569.044 235.753C568.653 235.753 568.311 235.834 568.02 235.996C567.731 236.156 567.507 236.379 567.348 236.668C567.193 236.956 567.115 237.294 567.115 237.682H565.941C565.941 237.085 566.079 236.562 566.354 236.111C566.629 235.66 567.004 235.309 567.478 235.057C567.955 234.805 568.49 234.679 569.083 234.679C569.68 234.679 570.209 234.805 570.669 235.057C571.13 235.309 571.491 235.648 571.753 236.076C572.015 236.504 572.146 236.979 572.146 237.503C572.146 237.877 572.078 238.244 571.942 238.602C571.81 238.956 571.578 239.352 571.246 239.79C570.918 240.224 570.462 240.754 569.879 241.381L567.592 243.827V243.906H572.325V245H565.902ZM573.921 242.912V241.898L578.395 234.818H579.131V236.389H578.634L575.253 241.739V241.818H581.279V242.912H573.921ZM578.713 245V242.604V242.131V234.818H579.887V245H578.713ZM587.676 245H586.383L590.122 234.818H591.395L595.133 245H593.841L590.798 236.429H590.719L587.676 245ZM588.153 241.023H593.363V242.116H588.153V241.023ZM601.373 241.878V237.364H602.546V245H601.373V243.707H601.293C601.114 244.095 600.836 244.425 600.458 244.697C600.08 244.965 599.603 245.099 599.026 245.099C598.549 245.099 598.125 244.995 597.753 244.786C597.382 244.574 597.09 244.256 596.878 243.832C596.666 243.404 596.56 242.866 596.56 242.216V237.364H597.733V242.136C597.733 242.693 597.889 243.137 598.201 243.469C598.516 243.8 598.917 243.966 599.404 243.966C599.696 243.966 599.992 243.891 600.294 243.742C600.599 243.593 600.854 243.364 601.059 243.056C601.268 242.748 601.373 242.355 601.373 241.878ZM607.777 248.023C607.211 248.023 606.723 247.95 606.316 247.804C605.908 247.661 605.568 247.473 605.297 247.237C605.028 247.005 604.814 246.757 604.655 246.491L605.59 245.835C605.696 245.974 605.83 246.134 605.993 246.312C606.155 246.495 606.377 246.652 606.659 246.785C606.944 246.921 607.317 246.989 607.777 246.989C608.394 246.989 608.903 246.839 609.304 246.541C609.705 246.243 609.905 245.776 609.905 245.139V243.588H609.806C609.72 243.727 609.597 243.9 609.438 244.105C609.282 244.307 609.057 244.488 608.762 244.647C608.47 244.803 608.076 244.881 607.578 244.881C606.962 244.881 606.408 244.735 605.918 244.443C605.431 244.152 605.045 243.727 604.76 243.17C604.478 242.614 604.337 241.937 604.337 241.142C604.337 240.36 604.475 239.679 604.75 239.099C605.025 238.515 605.408 238.065 605.898 237.746C606.389 237.425 606.955 237.264 607.598 237.264C608.096 237.264 608.49 237.347 608.782 237.513C609.077 237.675 609.302 237.861 609.458 238.07C609.617 238.275 609.739 238.444 609.826 238.577H609.945V237.364H611.078V245.219C611.078 245.875 610.929 246.409 610.631 246.82C610.336 247.234 609.938 247.537 609.438 247.729C608.941 247.925 608.387 248.023 607.777 248.023ZM607.738 243.827C608.208 243.827 608.606 243.719 608.931 243.504C609.256 243.288 609.502 242.978 609.672 242.574C609.841 242.17 609.925 241.686 609.925 241.122C609.925 240.572 609.842 240.086 609.676 239.665C609.511 239.245 609.266 238.915 608.941 238.676C608.616 238.437 608.215 238.318 607.738 238.318C607.24 238.318 606.826 238.444 606.495 238.696C606.167 238.948 605.92 239.286 605.754 239.71C605.592 240.134 605.51 240.605 605.51 241.122C605.51 241.652 605.593 242.121 605.759 242.529C605.928 242.933 606.176 243.252 606.505 243.484C606.836 243.712 607.247 243.827 607.738 243.827Z" fill="#0A0A0A"/>
<path d="M683.025 245V244.105L686.385 240.426C686.78 239.995 687.105 239.621 687.36 239.303C687.615 238.981 687.804 238.679 687.927 238.398C688.053 238.113 688.116 237.814 688.116 237.503C688.116 237.145 688.029 236.835 687.857 236.573C687.688 236.311 687.456 236.109 687.161 235.967C686.866 235.824 686.535 235.753 686.167 235.753C685.776 235.753 685.434 235.834 685.143 235.996C684.854 236.156 684.631 236.379 684.471 236.668C684.316 236.956 684.238 237.294 684.238 237.682H683.064C683.064 237.085 683.202 236.562 683.477 236.111C683.752 235.66 684.127 235.309 684.601 235.057C685.078 234.805 685.613 234.679 686.206 234.679C686.803 234.679 687.332 234.805 687.792 235.057C688.253 235.309 688.614 235.648 688.876 236.076C689.138 236.504 689.269 236.979 689.269 237.503C689.269 237.877 689.201 238.244 689.065 238.602C688.933 238.956 688.701 239.352 688.369 239.79C688.041 240.224 687.585 240.754 687.002 241.381L684.715 243.827V243.906H689.448V245H683.025ZM694.683 245.139C694.1 245.139 693.574 245.023 693.107 244.791C692.64 244.559 692.265 244.241 691.983 243.837C691.702 243.432 691.548 242.972 691.521 242.455H692.714C692.761 242.915 692.97 243.296 693.341 243.598C693.715 243.896 694.163 244.045 694.683 244.045C695.101 244.045 695.472 243.948 695.797 243.752C696.125 243.557 696.382 243.288 696.567 242.947C696.756 242.602 696.851 242.213 696.851 241.778C696.851 241.334 696.753 240.938 696.557 240.59C696.365 240.239 696.1 239.962 695.762 239.76C695.424 239.558 695.038 239.455 694.604 239.452C694.292 239.448 693.972 239.496 693.644 239.596C693.316 239.692 693.046 239.816 692.834 239.969L691.68 239.83L692.297 234.818H697.586V235.912H693.331L692.973 238.915H693.032C693.241 238.749 693.503 238.612 693.818 238.502C694.133 238.393 694.461 238.338 694.802 238.338C695.425 238.338 695.981 238.487 696.468 238.786C696.958 239.08 697.343 239.485 697.621 239.999C697.903 240.512 698.044 241.099 698.044 241.759C698.044 242.408 697.898 242.988 697.606 243.499C697.318 244.006 696.92 244.407 696.413 244.702C695.906 244.993 695.329 245.139 694.683 245.139ZM704.553 245H703.26L706.999 234.818H708.272L712.01 245H710.718L707.675 236.429H707.596L704.553 245ZM705.03 241.023H710.24V242.116H705.03V241.023ZM718.25 241.878V237.364H719.423V245H718.25V243.707H718.17C717.991 244.095 717.713 244.425 717.335 244.697C716.957 244.965 716.48 245.099 715.903 245.099C715.426 245.099 715.002 244.995 714.63 244.786C714.259 244.574 713.967 244.256 713.755 243.832C713.543 243.404 713.437 242.866 713.437 242.216V237.364H714.61V242.136C714.61 242.693 714.766 243.137 715.078 243.469C715.393 243.8 715.794 243.966 716.281 243.966C716.573 243.966 716.869 243.891 717.171 243.742C717.476 243.593 717.731 243.364 717.936 243.056C718.145 242.748 718.25 242.355 718.25 241.878ZM724.654 248.023C724.088 248.023 723.6 247.95 723.193 247.804C722.785 247.661 722.445 247.473 722.173 247.237C721.905 247.005 721.691 246.757 721.532 246.491L722.467 245.835C722.573 245.974 722.707 246.134 722.869 246.312C723.032 246.495 723.254 246.652 723.536 246.785C723.821 246.921 724.194 246.989 724.654 246.989C725.271 246.989 725.78 246.839 726.181 246.541C726.582 246.243 726.782 245.776 726.782 245.139V243.588H726.683C726.597 243.727 726.474 243.9 726.315 244.105C726.159 244.307 725.934 244.488 725.639 244.647C725.347 244.803 724.953 244.881 724.455 244.881C723.839 244.881 723.285 244.735 722.795 244.443C722.308 244.152 721.922 243.727 721.637 243.17C721.355 242.614 721.214 241.937 721.214 241.142C721.214 240.36 721.352 239.679 721.627 239.099C721.902 238.515 722.285 238.065 722.775 237.746C723.266 237.425 723.832 237.264 724.475 237.264C724.972 237.264 725.367 237.347 725.659 237.513C725.954 237.675 726.179 237.861 726.335 238.07C726.494 238.275 726.616 238.444 726.703 238.577H726.822V237.364H727.955V245.219C727.955 245.875 727.806 246.409 727.508 246.82C727.213 247.234 726.815 247.537 726.315 247.729C725.818 247.925 725.264 248.023 724.654 248.023ZM724.615 243.827C725.085 243.827 725.483 243.719 725.808 243.504C726.133 243.288 726.379 242.978 726.548 242.574C726.718 242.17 726.802 241.686 726.802 241.122C726.802 240.572 726.719 240.086 726.553 239.665C726.388 239.245 726.142 238.915 725.818 238.676C725.493 238.437 725.092 238.318 724.615 238.318C724.117 238.318 723.703 238.444 723.372 238.696C723.044 238.948 722.797 239.286 722.631 239.71C722.468 240.134 722.387 240.605 722.387 241.122C722.387 241.652 722.47 242.121 722.636 242.529C722.805 242.933 723.053 243.252 723.382 243.484C723.713 243.712 724.124 243.827 724.615 243.827Z" fill="#0A0A0A"/>
<path d="M564.81 38V33.888H563.562V32.864H564.81V31.552H563.562V30.528H564.81V26.576H566.474L567.994 30.528H569.882V26.576H571.146V30.528H572.394V31.552H571.146V32.864H572.394V33.888H571.146V38H569.466L567.946 33.888H566.058V38H564.81ZM566.058 32.864H567.562L567.082 31.552H566.026L566.058 32.864ZM569.882 35.744H569.946L569.898 33.888H569.226L569.882 35.744ZM566.026 30.528H566.698L566.026 28.544H565.962L566.026 30.528ZM568.842 32.864H569.914L569.882 31.552H568.362L568.842 32.864ZM580.894 35.616V34.208H579.422V27.184H578.174L572.606 34.48V35.616H577.806V38H579.422V35.616H580.894ZM574.414 34.208L577.806 29.632V34.208H574.414ZM584.386 36.848C584.386 36.096 583.89 35.584 583.154 35.584C582.434 35.584 581.922 36.096 581.922 36.848C581.922 37.568 582.434 38.08 583.154 38.08C583.89 38.08 584.386 37.568 584.386 36.848ZM585.382 32.608C585.382 36.192 586.774 38.16 589.366 38.16C591.958 38.16 593.366 36.192 593.366 32.608C593.366 29.024 591.926 27.024 589.366 27.024C586.806 27.024 585.382 29.024 585.382 32.608ZM587.046 32.608C587.046 29.904 587.878 28.48 589.366 28.48C590.886 28.48 591.702 29.904 591.702 32.608C591.702 35.296 590.886 36.704 589.366 36.704C587.846 36.704 587.046 35.28 587.046 32.608ZM594.609 32.608C594.609 36.192 596.001 38.16 598.593 38.16C601.185 38.16 602.593 36.192 602.593 32.608C602.593 29.024 601.153 27.024 598.593 27.024C596.033 27.024 594.609 29.024 594.609 32.608ZM596.273 32.608C596.273 29.904 597.105 28.48 598.593 28.48C600.113 28.48 600.929 29.904 600.929 32.608C600.929 35.296 600.113 36.704 598.593 36.704C597.073 36.704 596.273 35.28 596.273 32.608ZM603.836 32.608C603.836 36.192 605.228 38.16 607.82 38.16C610.412 38.16 611.82 36.192 611.82 32.608C611.82 29.024 610.38 27.024 607.82 27.024C605.26 27.024 603.836 29.024 603.836 32.608ZM605.5 32.608C605.5 29.904 606.332 28.48 607.82 28.48C609.34 28.48 610.156 29.904 610.156 32.608C610.156 35.296 609.34 36.704 607.82 36.704C606.3 36.704 605.5 35.28 605.5 32.608Z" fill="#0A0A0A"/>
<path d="M90 210H736" stroke="#E2E8F0" stroke-linecap="round"/>
<path d="M90 156H736" stroke="#E2E8F0" stroke-linecap="round"/>
<path d="M90 102H736" stroke="#E2E8F0" stroke-linecap="round"/>
<path d="M90 48H736" stroke="#E2E8F0" stroke-linecap="round"/>
<path d="M32.8153 44.9119V43.8977L37.2898 36.8182H38.0256V38.3892H37.5284L34.1477 43.7386V43.8182H40.1733V44.9119H32.8153ZM37.608 47V44.6037V44.1314V36.8182H38.7812V47H37.608ZM43.3278 45.608L43.2482 46.1449C43.1919 46.5227 43.1057 46.9271 42.9897 47.358C42.877 47.7888 42.7594 48.1948 42.6367 48.576C42.5141 48.9571 42.413 49.2604 42.3335 49.4858H41.4386C41.4817 49.2737 41.538 48.9936 41.6076 48.6456C41.6772 48.2976 41.7468 47.9081 41.8164 47.4773C41.8893 47.0497 41.949 46.6122 41.9954 46.1648L42.055 45.608H43.3278ZM48.4473 47.1392C47.6982 47.1392 47.0602 46.9354 46.5332 46.5277C46.0062 46.1167 45.6035 45.5218 45.3251 44.7429C45.0467 43.9607 44.9075 43.0161 44.9075 41.9091C44.9075 40.8087 45.0467 39.8691 45.3251 39.0902C45.6068 38.308 46.0112 37.7114 46.5382 37.3004C47.0685 36.8861 47.7048 36.679 48.4473 36.679C49.1897 36.679 49.8244 36.8861 50.3514 37.3004C50.8817 37.7114 51.286 38.308 51.5645 39.0902C51.8462 39.8691 51.987 40.8087 51.987 41.9091C51.987 43.0161 51.8478 43.9607 51.5694 44.7429C51.291 45.5218 50.8883 46.1167 50.3613 46.5277C49.8343 46.9354 49.1963 47.1392 48.4473 47.1392ZM48.4473 46.0455C49.1897 46.0455 49.7664 45.6875 50.1774 44.9716C50.5884 44.2557 50.7939 43.2348 50.7939 41.9091C50.7939 41.0275 50.6994 40.2768 50.5105 39.657C50.3249 39.0372 50.0564 38.5649 49.7051 38.2401C49.3571 37.9152 48.9378 37.7528 48.4473 37.7528C47.7115 37.7528 47.1364 38.1158 46.7221 38.8416C46.3078 39.5642 46.1007 40.5866 46.1007 41.9091C46.1007 42.7907 46.1935 43.5398 46.3791 44.1562C46.5647 44.7727 46.8315 45.2417 47.1795 45.5632C47.5308 45.8847 47.9534 46.0455 48.4473 46.0455ZM57.1973 47.1392C56.4482 47.1392 55.8102 46.9354 55.2832 46.5277C54.7562 46.1167 54.3535 45.5218 54.0751 44.7429C53.7967 43.9607 53.6575 43.0161 53.6575 41.9091C53.6575 40.8087 53.7967 39.8691 54.0751 39.0902C54.3568 38.308 54.7612 37.7114 55.2882 37.3004C55.8185 36.8861 56.4548 36.679 57.1973 36.679C57.9397 36.679 58.5744 36.8861 59.1014 37.3004C59.6317 37.7114 60.036 38.308 60.3145 39.0902C60.5962 39.8691 60.737 40.8087 60.737 41.9091C60.737 43.0161 60.5978 43.9607 60.3194 44.7429C60.041 45.5218 59.6383 46.1167 59.1113 46.5277C58.5843 46.9354 57.9463 47.1392 57.1973 47.1392ZM57.1973 46.0455C57.9397 46.0455 58.5164 45.6875 58.9274 44.9716C59.3384 44.2557 59.5439 43.2348 59.5439 41.9091C59.5439 41.0275 59.4494 40.2768 59.2605 39.657C59.0749 39.0372 58.8064 38.5649 58.4551 38.2401C58.1071 37.9152 57.6878 37.7528 57.1973 37.7528C56.4615 37.7528 55.8864 38.1158 55.4721 38.8416C55.0578 39.5642 54.8507 40.5866 54.8507 41.9091C54.8507 42.7907 54.9435 43.5398 55.1291 44.1562C55.3147 44.7727 55.5815 45.2417 55.9295 45.5632C56.2808 45.8847 56.7034 46.0455 57.1973 46.0455ZM65.9473 47.1392C65.1982 47.1392 64.5602 46.9354 64.0332 46.5277C63.5062 46.1167 63.1035 45.5218 62.8251 44.7429C62.5467 43.9607 62.4075 43.0161 62.4075 41.9091C62.4075 40.8087 62.5467 39.8691 62.8251 39.0902C63.1068 38.308 63.5112 37.7114 64.0382 37.3004C64.5685 36.8861 65.2048 36.679 65.9473 36.679C66.6897 36.679 67.3244 36.8861 67.8514 37.3004C68.3817 37.7114 68.786 38.308 69.0645 39.0902C69.3462 39.8691 69.487 40.8087 69.487 41.9091C69.487 43.0161 69.3478 43.9607 69.0694 44.7429C68.791 45.5218 68.3883 46.1167 67.8613 46.5277C67.3343 46.9354 66.6963 47.1392 65.9473 47.1392ZM65.9473 46.0455C66.6897 46.0455 67.2664 45.6875 67.6774 44.9716C68.0884 44.2557 68.2939 43.2348 68.2939 41.9091C68.2939 41.0275 68.1994 40.2768 68.0105 39.657C67.8249 39.0372 67.5564 38.5649 67.2051 38.2401C66.8571 37.9152 66.4378 37.7528 65.9473 37.7528C65.2115 37.7528 64.6364 38.1158 64.2221 38.8416C63.8078 39.5642 63.6007 40.5866 63.6007 41.9091C63.6007 42.7907 63.6935 43.5398 63.8791 44.1562C64.0647 44.7727 64.3315 45.2417 64.6795 45.5632C65.0308 45.8847 65.4534 46.0455 65.9473 46.0455Z" fill="#0A0A0A"/>
<path d="M36.4943 101.139C35.8381 101.139 35.2531 101.027 34.7393 100.801C34.2289 100.576 33.8229 100.263 33.5213 99.8615C33.223 99.4571 33.0606 98.9882 33.0341 98.4545H34.2869C34.3134 98.7827 34.4261 99.0661 34.625 99.3047C34.8239 99.54 35.084 99.7223 35.4055 99.8516C35.727 99.9808 36.0833 100.045 36.4744 100.045C36.9119 100.045 37.2997 99.9692 37.6378 99.8168C37.9759 99.6643 38.241 99.4522 38.4332 99.1804C38.6255 98.9086 38.7216 98.5938 38.7216 98.2358C38.7216 97.8613 38.6288 97.5315 38.4432 97.2464C38.2576 96.9581 37.9858 96.7327 37.6278 96.5703C37.2699 96.4079 36.8324 96.3267 36.3153 96.3267H35.5V95.233H36.3153C36.7197 95.233 37.0743 95.16 37.3793 95.0142C37.6875 94.8684 37.9278 94.6629 38.1001 94.3977C38.2758 94.1326 38.3636 93.821 38.3636 93.4631C38.3636 93.1184 38.2874 92.8184 38.1349 92.5632C37.9825 92.308 37.767 92.1091 37.4886 91.9666C37.2135 91.8241 36.8887 91.7528 36.5142 91.7528C36.1629 91.7528 35.8314 91.8175 35.5199 91.9467C35.2116 92.0727 34.9598 92.2566 34.7642 92.4986C34.5687 92.7372 34.4626 93.0256 34.446 93.3636H33.2528C33.2727 92.83 33.4335 92.3627 33.7351 91.9616C34.0367 91.5573 34.4311 91.2424 34.9183 91.017C35.4089 90.7917 35.9474 90.679 36.5341 90.679C37.1638 90.679 37.7041 90.8066 38.1548 91.0618C38.6056 91.3137 38.9519 91.6468 39.1939 92.0611C39.4358 92.4754 39.5568 92.9228 39.5568 93.4034C39.5568 93.9768 39.406 94.4657 39.1044 94.87C38.8061 95.2744 38.4001 95.5545 37.8864 95.7102V95.7898C38.5294 95.8958 39.0315 96.1693 39.3928 96.6101C39.754 97.0476 39.9347 97.5895 39.9347 98.2358C39.9347 98.7893 39.7839 99.2865 39.4822 99.7273C39.1839 100.165 38.7763 100.509 38.2592 100.761C37.7422 101.013 37.1539 101.139 36.4943 101.139ZM43.4235 99.608L43.3439 100.145C43.2876 100.523 43.2014 100.927 43.0854 101.358C42.9727 101.789 42.8551 102.195 42.7324 102.576C42.6098 102.957 42.5087 103.26 42.4292 103.486H41.5343C41.5774 103.274 41.6337 102.994 41.7033 102.646C41.7729 102.298 41.8425 101.908 41.9121 101.477C41.985 101.05 42.0447 100.612 42.0911 100.165L42.1507 99.608H43.4235ZM48.543 101.139C47.7939 101.139 47.1559 100.935 46.6289 100.528C46.1019 100.117 45.6992 99.5218 45.4208 98.7429C45.1424 97.9607 45.0032 97.0161 45.0032 95.9091C45.0032 94.8087 45.1424 93.8691 45.4208 93.0902C45.7025 92.308 46.1069 91.7114 46.6339 91.3004C47.1642 90.8861 47.8005 90.679 48.543 90.679C49.2854 90.679 49.9201 90.8861 50.4471 91.3004C50.9774 91.7114 51.3817 92.308 51.6602 93.0902C51.9419 93.8691 52.0827 94.8087 52.0827 95.9091C52.0827 97.0161 51.9435 97.9607 51.6651 98.7429C51.3867 99.5218 50.984 100.117 50.457 100.528C49.93 100.935 49.292 101.139 48.543 101.139ZM48.543 100.045C49.2854 100.045 49.8621 99.6875 50.2731 98.9716C50.6841 98.2557 50.8896 97.2348 50.8896 95.9091C50.8896 95.0275 50.7951 94.2768 50.6062 93.657C50.4206 93.0372 50.1521 92.5649 49.8008 92.2401C49.4528 91.9152 49.0335 91.7528 48.543 91.7528C47.8072 91.7528 47.2321 92.1158 46.8178 92.8416C46.4035 93.5642 46.1964 94.5866 46.1964 95.9091C46.1964 96.7907 46.2892 97.5398 46.4748 98.1562C46.6604 98.7727 46.9272 99.2417 47.2752 99.5632C47.6265 99.8847 48.0491 100.045 48.543 100.045ZM57.293 101.139C56.5439 101.139 55.9059 100.935 55.3789 100.528C54.8519 100.117 54.4492 99.5218 54.1708 98.7429C53.8924 97.9607 53.7532 97.0161 53.7532 95.9091C53.7532 94.8087 53.8924 93.8691 54.1708 93.0902C54.4525 92.308 54.8569 91.7114 55.3839 91.3004C55.9142 90.8861 56.5505 90.679 57.293 90.679C58.0354 90.679 58.6701 90.8861 59.1971 91.3004C59.7274 91.7114 60.1317 92.308 60.4102 93.0902C60.6919 93.8691 60.8327 94.8087 60.8327 95.9091C60.8327 97.0161 60.6935 97.9607 60.4151 98.7429C60.1367 99.5218 59.734 100.117 59.207 100.528C58.68 100.935 58.042 101.139 57.293 101.139ZM57.293 100.045C58.0354 100.045 58.6121 99.6875 59.0231 98.9716C59.4341 98.2557 59.6396 97.2348 59.6396 95.9091C59.6396 95.0275 59.5451 94.2768 59.3562 93.657C59.1706 93.0372 58.9021 92.5649 58.5508 92.2401C58.2028 91.9152 57.7835 91.7528 57.293 91.7528C56.5572 91.7528 55.9821 92.1158 55.5678 92.8416C55.1535 93.5642 54.9464 94.5866 54.9464 95.9091C54.9464 96.7907 55.0392 97.5398 55.2248 98.1562C55.4104 98.7727 55.6772 99.2417 56.0252 99.5632C56.3765 99.8847 56.7991 100.045 57.293 100.045ZM66.043 101.139C65.2939 101.139 64.6559 100.935 64.1289 100.528C63.6019 100.117 63.1992 99.5218 62.9208 98.7429C62.6424 97.9607 62.5032 97.0161 62.5032 95.9091C62.5032 94.8087 62.6424 93.8691 62.9208 93.0902C63.2025 92.308 63.6069 91.7114 64.1339 91.3004C64.6642 90.8861 65.3005 90.679 66.043 90.679C66.7854 90.679 67.4201 90.8861 67.9471 91.3004C68.4774 91.7114 68.8817 92.308 69.1602 93.0902C69.4419 93.8691 69.5827 94.8087 69.5827 95.9091C69.5827 97.0161 69.4435 97.9607 69.1651 98.7429C68.8867 99.5218 68.484 100.117 67.957 100.528C67.43 100.935 66.792 101.139 66.043 101.139ZM66.043 100.045C66.7854 100.045 67.3621 99.6875 67.7731 98.9716C68.1841 98.2557 68.3896 97.2348 68.3896 95.9091C68.3896 95.0275 68.2951 94.2768 68.1062 93.657C67.9206 93.0372 67.6521 92.5649 67.3008 92.2401C66.9528 91.9152 66.5335 91.7528 66.043 91.7528C65.3072 91.7528 64.7321 92.1158 64.3178 92.8416C63.9035 93.5642 63.6964 94.5866 63.6964 95.9091C63.6964 96.7907 63.7892 97.5398 63.9748 98.1562C64.1604 98.7727 64.4272 99.2417 64.7752 99.5632C65.1265 99.8847 65.5491 100.045 66.043 100.045Z" fill="#0A0A0A"/>
<path d="M33.054 155V154.105L36.4148 150.426C36.8092 149.995 37.134 149.621 37.3892 149.303C37.6444 148.981 37.8333 148.679 37.956 148.398C38.0819 148.113 38.1449 147.814 38.1449 147.503C38.1449 147.145 38.0587 146.835 37.8864 146.573C37.7173 146.311 37.4853 146.109 37.1903 145.967C36.8954 145.824 36.5639 145.753 36.196 145.753C35.8049 145.753 35.4635 145.834 35.1719 145.996C34.8835 146.156 34.6598 146.379 34.5007 146.668C34.3449 146.956 34.267 147.294 34.267 147.682H33.0938C33.0938 147.085 33.2313 146.562 33.5064 146.111C33.7815 145.66 34.156 145.309 34.63 145.057C35.1072 144.805 35.6425 144.679 36.2358 144.679C36.8324 144.679 37.361 144.805 37.8217 145.057C38.2824 145.309 38.6437 145.648 38.9055 146.076C39.1674 146.504 39.2983 146.979 39.2983 147.503C39.2983 147.877 39.2304 148.244 39.0945 148.602C38.9619 148.956 38.7299 149.352 38.3984 149.79C38.0703 150.224 37.6146 150.754 37.0312 151.381L34.7443 153.827V153.906H39.4773V155H33.054ZM43.3004 153.608L43.2209 154.145C43.1645 154.523 43.0784 154.927 42.9624 155.358C42.8497 155.789 42.732 156.195 42.6094 156.576C42.4867 156.957 42.3857 157.26 42.3061 157.486H41.4112C41.4543 157.274 41.5107 156.994 41.5803 156.646C41.6499 156.298 41.7195 155.908 41.7891 155.477C41.862 155.05 41.9216 154.612 41.968 154.165L42.0277 153.608H43.3004ZM48.4199 155.139C47.6709 155.139 47.0328 154.935 46.5059 154.528C45.9789 154.117 45.5762 153.522 45.2978 152.743C45.0194 151.961 44.8801 151.016 44.8801 149.909C44.8801 148.809 45.0194 147.869 45.2978 147.09C45.5795 146.308 45.9838 145.711 46.5108 145.3C47.0411 144.886 47.6775 144.679 48.4199 144.679C49.1623 144.679 49.7971 144.886 50.324 145.3C50.8543 145.711 51.2587 146.308 51.5371 147.09C51.8188 147.869 51.9597 148.809 51.9597 149.909C51.9597 151.016 51.8205 151.961 51.5421 152.743C51.2637 153.522 50.861 154.117 50.334 154.528C49.807 154.935 49.169 155.139 48.4199 155.139ZM48.4199 154.045C49.1623 154.045 49.7391 153.687 50.15 152.972C50.561 152.256 50.7665 151.235 50.7665 149.909C50.7665 149.027 50.6721 148.277 50.4831 147.657C50.2975 147.037 50.0291 146.565 49.6777 146.24C49.3297 145.915 48.9105 145.753 48.4199 145.753C47.6841 145.753 47.1091 146.116 46.6948 146.842C46.2805 147.564 46.0733 148.587 46.0733 149.909C46.0733 150.791 46.1661 151.54 46.3517 152.156C46.5373 152.773 46.8042 153.242 47.1522 153.563C47.5035 153.885 47.9261 154.045 48.4199 154.045ZM57.1699 155.139C56.4209 155.139 55.7828 154.935 55.2559 154.528C54.7289 154.117 54.3262 153.522 54.0478 152.743C53.7694 151.961 53.6301 151.016 53.6301 149.909C53.6301 148.809 53.7694 147.869 54.0478 147.09C54.3295 146.308 54.7338 145.711 55.2608 145.3C55.7911 144.886 56.4275 144.679 57.1699 144.679C57.9123 144.679 58.5471 144.886 59.074 145.3C59.6043 145.711 60.0087 146.308 60.2871 147.09C60.5688 147.869 60.7097 148.809 60.7097 149.909C60.7097 151.016 60.5705 151.961 60.2921 152.743C60.0137 153.522 59.611 154.117 59.084 154.528C58.557 154.935 57.919 155.139 57.1699 155.139ZM57.1699 154.045C57.9123 154.045 58.4891 153.687 58.9 152.972C59.311 152.256 59.5165 151.235 59.5165 149.909C59.5165 149.027 59.4221 148.277 59.2331 147.657C59.0475 147.037 58.7791 146.565 58.4277 146.24C58.0797 145.915 57.6605 145.753 57.1699 145.753C56.4341 145.753 55.8591 146.116 55.4448 146.842C55.0305 147.564 54.8233 148.587 54.8233 149.909C54.8233 150.791 54.9161 151.54 55.1017 152.156C55.2873 152.773 55.5542 153.242 55.9022 153.563C56.2535 153.885 56.6761 154.045 57.1699 154.045ZM65.9199 155.139C65.1709 155.139 64.5328 154.935 64.0059 154.528C63.4789 154.117 63.0762 153.522 62.7978 152.743C62.5194 151.961 62.3801 151.016 62.3801 149.909C62.3801 148.809 62.5194 147.869 62.7978 147.09C63.0795 146.308 63.4838 145.711 64.0108 145.3C64.5411 144.886 65.1775 144.679 65.9199 144.679C66.6623 144.679 67.2971 144.886 67.824 145.3C68.3543 145.711 68.7587 146.308 69.0371 147.09C69.3188 147.869 69.4597 148.809 69.4597 149.909C69.4597 151.016 69.3205 151.961 69.0421 152.743C68.7637 153.522 68.361 154.117 67.834 154.528C67.307 154.935 66.669 155.139 65.9199 155.139ZM65.9199 154.045C66.6623 154.045 67.2391 153.687 67.65 152.972C68.061 152.256 68.2665 151.235 68.2665 149.909C68.2665 149.027 68.1721 148.277 67.9831 147.657C67.7975 147.037 67.5291 146.565 67.1777 146.24C66.8297 145.915 66.4105 145.753 65.9199 145.753C65.1841 145.753 64.6091 146.116 64.1948 146.842C63.7805 147.564 63.5733 148.587 63.5733 149.909C63.5733 150.791 63.6661 151.54 63.8517 152.156C64.0373 152.773 64.3042 153.242 64.6522 153.563C65.0035 153.885 65.4261 154.045 65.9199 154.045Z" fill="#0A0A0A"/>
<path d="M36.6335 198.818V209H35.4006V200.111H35.3409L32.8551 201.761V200.509L35.4006 198.818H36.6335ZM40.7301 207.608L40.6506 208.145C40.5942 208.523 40.508 208.927 40.392 209.358C40.2794 209.789 40.1617 210.195 40.0391 210.576C39.9164 210.957 39.8153 211.26 39.7358 211.486H38.8409C38.884 211.274 38.9403 210.994 39.0099 210.646C39.0795 210.298 39.1491 209.908 39.2188 209.477C39.2917 209.05 39.3513 208.612 39.3977 208.165L39.4574 207.608H40.7301ZM45.8496 209.139C45.1006 209.139 44.4625 208.935 43.9355 208.528C43.4086 208.117 43.0059 207.522 42.7275 206.743C42.449 205.961 42.3098 205.016 42.3098 203.909C42.3098 202.809 42.449 201.869 42.7275 201.09C43.0092 200.308 43.4135 199.711 43.9405 199.3C44.4708 198.886 45.1072 198.679 45.8496 198.679C46.592 198.679 47.2267 198.886 47.7537 199.3C48.284 199.711 48.6884 200.308 48.9668 201.09C49.2485 201.869 49.3894 202.809 49.3894 203.909C49.3894 205.016 49.2502 205.961 48.9718 206.743C48.6934 207.522 48.2907 208.117 47.7637 208.528C47.2367 208.935 46.5987 209.139 45.8496 209.139ZM45.8496 208.045C46.592 208.045 47.1687 207.687 47.5797 206.972C47.9907 206.256 48.1962 205.235 48.1962 203.909C48.1962 203.027 48.1017 202.277 47.9128 201.657C47.7272 201.037 47.4587 200.565 47.1074 200.24C46.7594 199.915 46.3401 199.753 45.8496 199.753C45.1138 199.753 44.5388 200.116 44.1245 200.842C43.7102 201.564 43.503 202.587 43.503 203.909C43.503 204.791 43.5958 205.54 43.7814 206.156C43.967 206.773 44.2338 207.242 44.5819 207.563C44.9332 207.885 45.3558 208.045 45.8496 208.045ZM54.5996 209.139C53.8506 209.139 53.2125 208.935 52.6855 208.528C52.1586 208.117 51.7559 207.522 51.4775 206.743C51.199 205.961 51.0598 205.016 51.0598 203.909C51.0598 202.809 51.199 201.869 51.4775 201.09C51.7592 200.308 52.1635 199.711 52.6905 199.3C53.2208 198.886 53.8572 198.679 54.5996 198.679C55.342 198.679 55.9767 198.886 56.5037 199.3C57.034 199.711 57.4384 200.308 57.7168 201.09C57.9985 201.869 58.1394 202.809 58.1394 203.909C58.1394 205.016 58.0002 205.961 57.7218 206.743C57.4434 207.522 57.0407 208.117 56.5137 208.528C55.9867 208.935 55.3487 209.139 54.5996 209.139ZM54.5996 208.045C55.342 208.045 55.9187 207.687 56.3297 206.972C56.7407 206.256 56.9462 205.235 56.9462 203.909C56.9462 203.027 56.8517 202.277 56.6628 201.657C56.4772 201.037 56.2087 200.565 55.8574 200.24C55.5094 199.915 55.0901 199.753 54.5996 199.753C53.8638 199.753 53.2888 200.116 52.8745 200.842C52.4602 201.564 52.253 202.587 52.253 203.909C52.253 204.791 52.3458 205.54 52.5314 206.156C52.717 206.773 52.9838 207.242 53.3319 207.563C53.6832 207.885 54.1058 208.045 54.5996 208.045ZM63.3496 209.139C62.6006 209.139 61.9625 208.935 61.4355 208.528C60.9086 208.117 60.5059 207.522 60.2275 206.743C59.949 205.961 59.8098 205.016 59.8098 203.909C59.8098 202.809 59.949 201.869 60.2275 201.09C60.5092 200.308 60.9135 199.711 61.4405 199.3C61.9708 198.886 62.6072 198.679 63.3496 198.679C64.092 198.679 64.7267 198.886 65.2537 199.3C65.784 199.711 66.1884 200.308 66.4668 201.09C66.7485 201.869 66.8894 202.809 66.8894 203.909C66.8894 205.016 66.7502 205.961 66.4718 206.743C66.1934 207.522 65.7907 208.117 65.2637 208.528C64.7367 208.935 64.0987 209.139 63.3496 209.139ZM63.3496 208.045C64.092 208.045 64.6687 207.687 65.0797 206.972C65.4907 206.256 65.6962 205.235 65.6962 203.909C65.6962 203.027 65.6017 202.277 65.4128 201.657C65.2272 201.037 64.9587 200.565 64.6074 200.24C64.2594 199.915 63.8401 199.753 63.3496 199.753C62.6138 199.753 62.0388 200.116 61.6245 200.842C61.2102 201.564 61.003 202.587 61.003 203.909C61.003 204.791 61.0958 205.54 61.2814 206.156C61.467 206.773 61.7338 207.242 62.0819 207.563C62.4332 207.885 62.8558 208.045 63.3496 208.045Z" fill="#0A0A0A"/>
<g clip-path="url(#clip0_2514_4747)">
<path d="M736 115.254L695.092 123.582L657.594 90.2705L621.799 123.582L575.778 132.951L534.871 120.459L500.781 164.18L434.306 127.746L383.172 112.131L343.968 164.18L304.765 185L270.675 146.484L226.359 150.648L185.451 75.6967L146.248 58L107.045 146.484L90 133.743" stroke="#EF2C5A" stroke-linecap="round"/>
<path d="M146.248 58L107.045 146.493L90 133.751V210H736V115.26L695.092 123.589L657.594 90.274L621.799 123.589L575.778 132.959L534.871 120.466L500.781 164.192L434.306 127.753L383.172 112.137L343.968 164.192L304.765 185.014L270.675 146.493L226.359 150.658L185.451 75.6986L146.248 58Z" fill="url(#paint0_linear_2514_4747)"/>
</g>
<path d="M587 49C587 48.4477 587.448 48 588 48C588.552 48 589 48.4477 589 49V210H587V49Z" fill="#0A0A0A"/>
<rect x="0.5" y="0.5" width="767" height="283" rx="7.5" stroke="#0A0A0A"/>
<defs>
<linearGradient id="paint0_linear_2514_4747" x1="413" y1="-604.137" x2="413" y2="199.589" gradientUnits="userSpaceOnUse">
<stop stop-color="#EF2C5A"/>
<stop offset="1" stop-color="#EF2C5A" stop-opacity="0"/>
</linearGradient>
<clipPath id="clip0_2514_4747">
<rect width="647" height="162" fill="white" transform="translate(89 48)"/>
</clipPath>
</defs>
</svg>
